<svg width="141" height="148" viewBox="0 0 140.1 147.3" xmlns="http://www.w3.org/2000/svg" xmlns:xlink="http://www.w3.org/1999/xlink" overflow="hidden"><path d="M1.1 39.3 12.8 19 1.9-3.55271e-15 8.5-3.55271e-15 13.6 9.4C14.0667 10.2667 14.5667 11.1667 15.1 12.1L16.7 15.2 16.9 15.2C17.5 14.0667 18 13.0333 18.4 12.1 18.8667 11.1667 19.3 10.2667 19.7 9.4L24.7-1.77636e-15 31-1.77636e-15 20.1 19.3 31.7 39.3 25.1 39.3 19.6 29.4C19.0667 28.4 18.5333 27.4 18 26.4 17.4667 25.4 16.9 24.3 16.3 23.1L16 23.1C15.4667 24.3 14.9333 25.4 14.4 26.4L12.8 29.4 7.4 39.3Z" fill="#6D4595"/><path d="M36 39.3 49 0 56 0 69 39.3 62.5 39.3 59.2 28 45.4 28 42.1 39.3ZM48.6 17.9 46.9 23.3 57.8 23.3 56.2 17.9C55.5333 15.7667 54.9 13.6 54.3 11.4 53.6333 9.2 53.0333 7 52.5 4.8L52.2 4.8C51.6667 7 51.1 9.2 50.5 11.4 49.8333 13.6 49.2 15.7667 48.6 17.9Z" fill="#6D4595"/><path d="M75.8 39.3 75.8 34.3 85.4 34.3 85.4 5 75.8 5 75.8-3.55271e-15 101-3.55271e-15 101 5 91.4 5 91.4 34.3 101 34.3 101 39.3Z" fill="#6D4595"/><path d="M121.4 39.3 121.4 5 108.8 5 108.8 0 140.1 0 140.1 5 127.4 5 127.4 39.3Z" fill="#6D4595"/><path d="M0 93.3 13 54 20 54 33 93.3 26.5 93.3 23.2 82 9.4 82 6.1 93.3ZM12.6 71.9 10.9 77.3 21.8 77.3 20.2 71.9C19.5333 69.7667 18.9 67.6 18.3 65.4 17.6333 63.2 17.0333 61 16.5 58.8L16.2 58.8C15.6667 61 15.1 63.2 14.5 65.4 13.8333 67.6 13.2 69.7667 12.6 71.9Z" fill="#FFFFFF"/><path d="M39.8 93.3 39.8 88.3 49.4 88.3 49.4 59 39.8 59 39.8 54 65 54 65 59 55.4 59 55.4 88.3 65 88.3 65 93.3Z" fill="#FFFFFF"/><path d="M85.4 93.3 85.4 59 72.8 59 72.8 54 104.1 54 104.1 59 91.4 59 91.4 93.3Z" fill="#FFFFFF"/><path d="M114.1 93.3 114.1 54 120 54 120 88.3 138.9 88.3 138.9 93.3Z" fill="#FFFFFF"/><path d="M13.4 147.3 13.4 113 0.8 113 0.8 108 32.1 108 32.1 113 19.4 113 19.4 147.3Z" fill="#FFFFFF"/><path d="M42.1 147.3 42.1 108 48 108 48 142.3 66.9 142.3 66.9 147.3Z" fill="#6D4595"/><path d="M72 147.3 85 108 92 108 105 147.3 98.5 147.3 95.2 136 81.4 136 78.1 147.3ZM84.6 125.9 82.9 131.3 93.8 131.3 92.2 125.9C91.5333 123.767 90.9 121.6 90.3 119.4 89.6333 117.2 89.0333 115 88.5 112.8L88.2 112.8C87.6667 115 87.1 117.2 86.5 119.4 85.8333 121.6 85.2 123.767 84.6 125.9Z" fill="#6D4595"/><path d="M112 147.3 112 108 123.7 108C124.3 108 124.9 108 125.5 108 126.1 108.067 126.667 108.133 127.2 108.2 127.8 108.267 128.4 108.367 129 108.5 129.6 108.633 130.2 108.767 130.8 108.9 131.267 109.033 131.7 109.2 132.1 109.4 132.567 109.6 133 109.833 133.4 110.1 133.8 110.367 134.2 110.633 134.6 110.9 134.933 111.233 135.267 111.567 135.6 111.9 135.933 112.3 136.233 112.733 136.5 113.2 136.7 113.667 136.867 114.133 137 114.6 137.2 115.067 137.333 115.567 137.4 116.1 137.467 116.567 137.467 117.067 137.4 117.6 137.4 118.067 137.367 118.533 137.3 119 137.233 119.467 137.133 119.933 137 120.4 136.867 120.8 136.7 121.233 136.5 121.7 136.3 122.1 136.067 122.5 135.8 122.9 135.467 123.3 135.1 123.667 134.7 124 134.3 124.4 133.9 124.733 133.5 125 133.033 125.267 132.567 125.5 132.1 125.7 131.633 125.9 131.133 126.067 130.6 126.2L130.6 126.4C131.2 126.467 131.8 126.6 132.4 126.8 133 126.933 133.567 127.133 134.1 127.4 134.7 127.667 135.267 127.967 135.8 128.3 136.267 128.633 136.733 129 137.2 129.4 137.6 129.867 137.967 130.333 138.3 130.8 138.567 131.267 138.8 131.8 139 132.4 139.2 132.933 139.367 133.467 139.5 134 139.567 134.6 139.567 135.2 139.5 135.8 139.567 136.333 139.567 136.9 139.5 137.5 139.433 138.033 139.3 138.6 139.1 139.2 138.967 139.733 138.767 140.267 138.5 140.8 138.233 141.267 137.967 141.733 137.7 142.2 137.367 142.667 137 143.1 136.6 143.5 136.2 143.833 135.767 144.167 135.3 144.5 134.833 144.833 134.367 145.133 133.9 145.4 133.433 145.667 132.933 145.867 132.4 146 131.8 146.267 131.167 146.467 130.5 146.6 129.9 146.8 129.267 146.933 128.6 147 127.933 147.133 127.267 147.2 126.6 147.2 125.933 147.267 125.3 147.3 124.7 147.3ZM118 124.3 123 124.3C126 124.3 128.167 123.8 129.5 122.8 129.833 122.533 130.133 122.233 130.4 121.9 130.667 121.5 130.9 121.133 131.1 120.8 131.233 120.4 131.367 119.967 131.5 119.5 131.567 119.1 131.567 118.667 131.5 118.2 131.567 117.8 131.567 117.4 131.5 117 131.433 116.6 131.3 116.233 131.1 115.9 130.9 115.5 130.667 115.167 130.4 114.9 130.133 114.567 129.8 114.3 129.4 114.1 128.933 113.9 128.433 113.7 127.9 113.5 127.433 113.367 126.933 113.233 126.4 113.1 125.867 113.033 125.3 112.967 124.7 112.9 124.167 112.9 123.633 112.9 123.1 112.9L118 112.9ZM118 142.4 123.9 142.4C127.033 142.4 129.433 141.833 131.1 140.7 131.5 140.433 131.867 140.1 132.2 139.7 132.533 139.3 132.833 138.867 133.1 138.4 133.3 137.933 133.467 137.433 133.6 136.9 133.667 136.433 133.667 135.933 133.6 135.4 133.667 134.933 133.633 134.467 133.5 134 133.433 133.533 133.3 133.067 133.1 132.6 132.9 132.2 132.633 131.833 132.3 131.5 131.967 131.1 131.6 130.8 131.2 130.6 129.533 129.6 127.1 129.1 123.9 129.1L118 129.1Z" fill="#6D4595"/></svg>